<mxfile host="app.diagrams.net" agent="Mozilla/5.0 (Windows NT 10.0; Win64; x64) AppleWebKit/537.36 (KHTML, like Gecko) Chrome/126.0.0.0 Safari/537.36 OPR/112.0.0.0" version="24.7.14">
  <diagram name="Página-1" id="6DTqiOvRNnmioWEePWYI">
    <mxGraphModel dx="1434" dy="755" grid="1" gridSize="10" guides="1" tooltips="1" connect="1" arrows="1" fold="1" page="1" pageScale="1" pageWidth="827" pageHeight="1169" math="0" shadow="0">
      <root>
        <mxCell id="0" />
        <mxCell id="1" parent="0" />
        <mxCell id="l4htDRG8Hnm-6rPadc3I-12" value="&lt;h1 style=&quot;margin-top: 0px;&quot;&gt;Inicio&lt;/h1&gt;" style="text;html=1;whiteSpace=wrap;overflow=hidden;rounded=0;strokeColor=default;" vertex="1" parent="1">
          <mxGeometry x="70" y="5" width="700" height="105" as="geometry" />
        </mxCell>
        <mxCell id="l4htDRG8Hnm-6rPadc3I-11" value="&lt;h1 style=&quot;margin-top: 0px;&quot;&gt;Loop&lt;/h1&gt;" style="text;html=1;whiteSpace=wrap;overflow=hidden;rounded=0;strokeColor=default;" vertex="1" parent="1">
          <mxGeometry x="70" y="120" width="700" height="370" as="geometry" />
        </mxCell>
        <mxCell id="l4htDRG8Hnm-6rPadc3I-3" value="" style="edgeStyle=orthogonalEdgeStyle;rounded=0;orthogonalLoop=1;jettySize=auto;html=1;" edge="1" parent="1" source="l4htDRG8Hnm-6rPadc3I-1" target="l4htDRG8Hnm-6rPadc3I-2">
          <mxGeometry relative="1" as="geometry" />
        </mxCell>
        <mxCell id="l4htDRG8Hnm-6rPadc3I-1" value="Start" style="rounded=1;whiteSpace=wrap;html=1;" vertex="1" parent="1">
          <mxGeometry x="354" y="20" width="120" height="60" as="geometry" />
        </mxCell>
        <mxCell id="l4htDRG8Hnm-6rPadc3I-10" style="edgeStyle=orthogonalEdgeStyle;rounded=0;orthogonalLoop=1;jettySize=auto;html=1;entryX=0.5;entryY=0;entryDx=0;entryDy=0;" edge="1" parent="1" source="l4htDRG8Hnm-6rPadc3I-2">
          <mxGeometry relative="1" as="geometry">
            <mxPoint x="414" y="270" as="targetPoint" />
          </mxGeometry>
        </mxCell>
        <mxCell id="l4htDRG8Hnm-6rPadc3I-2" value="&amp;nbsp;Passeio_do_cavaleiro" style="rounded=1;whiteSpace=wrap;html=1;" vertex="1" parent="1">
          <mxGeometry x="354" y="150" width="120" height="60" as="geometry" />
        </mxCell>
        <mxCell id="l4htDRG8Hnm-6rPadc3I-17" style="edgeStyle=orthogonalEdgeStyle;rounded=0;orthogonalLoop=1;jettySize=auto;html=1;entryX=0.5;entryY=1;entryDx=0;entryDy=0;" edge="1" parent="1" source="l4htDRG8Hnm-6rPadc3I-4" target="l4htDRG8Hnm-6rPadc3I-16">
          <mxGeometry relative="1" as="geometry" />
        </mxCell>
        <mxCell id="l4htDRG8Hnm-6rPadc3I-4" value="Contador" style="rounded=1;whiteSpace=wrap;html=1;" vertex="1" parent="1">
          <mxGeometry x="120" y="280" width="120" height="60" as="geometry" />
        </mxCell>
        <mxCell id="l4htDRG8Hnm-6rPadc3I-15" value="&lt;font size=&quot;1&quot;&gt;ACIONADO&lt;/font&gt;" style="edgeStyle=orthogonalEdgeStyle;rounded=0;orthogonalLoop=1;jettySize=auto;html=1;entryX=1;entryY=0.5;entryDx=0;entryDy=0;" edge="1" parent="1" source="l4htDRG8Hnm-6rPadc3I-13" target="l4htDRG8Hnm-6rPadc3I-4">
          <mxGeometry relative="1" as="geometry" />
        </mxCell>
        <mxCell id="l4htDRG8Hnm-6rPadc3I-13" value="SW1" style="rhombus;whiteSpace=wrap;html=1;" vertex="1" parent="1">
          <mxGeometry x="374" y="270" width="80" height="80" as="geometry" />
        </mxCell>
        <mxCell id="l4htDRG8Hnm-6rPadc3I-19" value="ACIONADO" style="edgeStyle=orthogonalEdgeStyle;rounded=0;orthogonalLoop=1;jettySize=auto;html=1;entryX=0;entryY=0.5;entryDx=0;entryDy=0;" edge="1" parent="1" source="l4htDRG8Hnm-6rPadc3I-16" target="l4htDRG8Hnm-6rPadc3I-2">
          <mxGeometry relative="1" as="geometry" />
        </mxCell>
        <mxCell id="l4htDRG8Hnm-6rPadc3I-16" value="SW1" style="rhombus;whiteSpace=wrap;html=1;" vertex="1" parent="1">
          <mxGeometry x="140" y="140" width="80" height="80" as="geometry" />
        </mxCell>
        <mxCell id="l4htDRG8Hnm-6rPadc3I-31" style="edgeStyle=orthogonalEdgeStyle;rounded=0;orthogonalLoop=1;jettySize=auto;html=1;" edge="1" parent="1" source="l4htDRG8Hnm-6rPadc3I-21" target="l4htDRG8Hnm-6rPadc3I-24">
          <mxGeometry relative="1" as="geometry" />
        </mxCell>
        <mxCell id="l4htDRG8Hnm-6rPadc3I-21" value="Tempo de intervalo&lt;div&gt;Começa em 1000ms&lt;/div&gt;" style="rounded=1;whiteSpace=wrap;html=1;" vertex="1" parent="1">
          <mxGeometry x="565" y="20" width="120" height="60" as="geometry" />
        </mxCell>
        <mxCell id="l4htDRG8Hnm-6rPadc3I-37" style="edgeStyle=orthogonalEdgeStyle;rounded=0;orthogonalLoop=1;jettySize=auto;html=1;" edge="1" parent="1" source="l4htDRG8Hnm-6rPadc3I-22" target="l4htDRG8Hnm-6rPadc3I-28">
          <mxGeometry relative="1" as="geometry" />
        </mxCell>
        <mxCell id="l4htDRG8Hnm-6rPadc3I-22" value="SW2" style="rhombus;whiteSpace=wrap;html=1;" vertex="1" parent="1">
          <mxGeometry x="510" y="190" width="60" height="60" as="geometry" />
        </mxCell>
        <mxCell id="l4htDRG8Hnm-6rPadc3I-36" style="edgeStyle=orthogonalEdgeStyle;rounded=0;orthogonalLoop=1;jettySize=auto;html=1;entryX=0.5;entryY=0;entryDx=0;entryDy=0;" edge="1" parent="1" source="l4htDRG8Hnm-6rPadc3I-24" target="l4htDRG8Hnm-6rPadc3I-22">
          <mxGeometry relative="1" as="geometry" />
        </mxCell>
        <mxCell id="l4htDRG8Hnm-6rPadc3I-24" value="1000ms" style="rounded=1;whiteSpace=wrap;html=1;" vertex="1" parent="1">
          <mxGeometry x="590" y="130" width="70" height="60" as="geometry" />
        </mxCell>
        <mxCell id="l4htDRG8Hnm-6rPadc3I-45" style="edgeStyle=orthogonalEdgeStyle;rounded=0;orthogonalLoop=1;jettySize=auto;html=1;entryX=0;entryY=0.5;entryDx=0;entryDy=0;" edge="1" parent="1" source="l4htDRG8Hnm-6rPadc3I-28" target="l4htDRG8Hnm-6rPadc3I-34">
          <mxGeometry relative="1" as="geometry">
            <Array as="points">
              <mxPoint x="540" y="380" />
            </Array>
          </mxGeometry>
        </mxCell>
        <mxCell id="l4htDRG8Hnm-6rPadc3I-28" value="500ms" style="rounded=1;whiteSpace=wrap;html=1;" vertex="1" parent="1">
          <mxGeometry x="505" y="270" width="70" height="60" as="geometry" />
        </mxCell>
        <mxCell id="l4htDRG8Hnm-6rPadc3I-30" value="200ms" style="rounded=1;whiteSpace=wrap;html=1;" vertex="1" parent="1">
          <mxGeometry x="680" y="270" width="70" height="60" as="geometry" />
        </mxCell>
        <mxCell id="l4htDRG8Hnm-6rPadc3I-39" style="edgeStyle=orthogonalEdgeStyle;rounded=0;orthogonalLoop=1;jettySize=auto;html=1;" edge="1" parent="1" source="l4htDRG8Hnm-6rPadc3I-34" target="l4htDRG8Hnm-6rPadc3I-30">
          <mxGeometry relative="1" as="geometry" />
        </mxCell>
        <mxCell id="l4htDRG8Hnm-6rPadc3I-34" value="SW2" style="rhombus;whiteSpace=wrap;html=1;" vertex="1" parent="1">
          <mxGeometry x="600" y="350" width="60" height="60" as="geometry" />
        </mxCell>
        <mxCell id="l4htDRG8Hnm-6rPadc3I-40" style="edgeStyle=orthogonalEdgeStyle;rounded=0;orthogonalLoop=1;jettySize=auto;html=1;" edge="1" parent="1" source="l4htDRG8Hnm-6rPadc3I-35" target="l4htDRG8Hnm-6rPadc3I-24">
          <mxGeometry relative="1" as="geometry">
            <Array as="points">
              <mxPoint x="710" y="160" />
            </Array>
          </mxGeometry>
        </mxCell>
        <mxCell id="l4htDRG8Hnm-6rPadc3I-35" value="SW2" style="rhombus;whiteSpace=wrap;html=1;" vertex="1" parent="1">
          <mxGeometry x="685" y="180" width="60" height="60" as="geometry" />
        </mxCell>
        <mxCell id="l4htDRG8Hnm-6rPadc3I-42" value="Acionado" style="text;html=1;align=center;verticalAlign=middle;whiteSpace=wrap;rounded=0;" vertex="1" parent="1">
          <mxGeometry x="600" y="250" width="60" height="30" as="geometry" />
        </mxCell>
        <mxCell id="l4htDRG8Hnm-6rPadc3I-46" style="edgeStyle=orthogonalEdgeStyle;rounded=0;orthogonalLoop=1;jettySize=auto;html=1;entryX=0.483;entryY=0.883;entryDx=0;entryDy=0;entryPerimeter=0;" edge="1" parent="1" source="l4htDRG8Hnm-6rPadc3I-30" target="l4htDRG8Hnm-6rPadc3I-35">
          <mxGeometry relative="1" as="geometry" />
        </mxCell>
      </root>
    </mxGraphModel>
  </diagram>
</mxfile>
